<svg version="1.1" id="Layer_1" xmlns="http://www.w3.org/2000/svg" xmlns:xlink="http://www.w3.org/1999/xlink" x="0px" y="0px"
	 width="100%" viewBox="0 0 800 800" enable-background="new 0 0 800 800" xml:space="preserve">
<path fill="#000000" opacity="1.000000" stroke="none" 
	d="
M259.838043,322.605225 
	C273.446228,315.390656 286.604065,315.310822 299.214264,323.784363 
	C303.057709,326.367004 306.893646,329.469513 309.097473,335.349945 
	C302.288147,335.349945 296.181885,335.896210 290.215485,335.215790 
	C282.223999,334.304443 277.745361,337.008301 273.861267,344.365326 
	C270.494385,350.742645 269.519714,354.992279 273.388611,361.694305 
	C277.631226,369.043671 281.933563,372.983765 290.743988,371.797638 
	C296.581482,371.011749 302.610535,371.648743 308.961578,371.648743 
	C308.060699,377.091553 304.605042,379.855865 301.347382,382.423492 
	C280.823853,398.599670 248.577469,388.495667 243.219315,362.049011 
	C240.399231,348.129822 244.239777,332.844604 259.838043,322.605225 
z"/>
<path fill="#000000" opacity="1.000000" stroke="none" 
	d="
M374.342712,339.000397 
	C374.343628,353.998260 374.225281,368.497925 374.421356,382.993286 
	C374.476837,387.094421 373.208405,388.542908 369.026001,388.420197 
	C358.343719,388.106720 359.777954,389.192474 359.660553,378.970154 
	C359.605072,374.138123 359.548431,369.302094 359.684479,364.473297 
	C359.768646,361.485748 358.623291,360.248657 355.592957,360.322113 
	C350.096863,360.455353 344.594482,360.427032 339.096558,360.344238 
	C336.285217,360.301910 335.283356,361.555939 335.324402,364.285797 
	C335.422119,370.783295 335.206848,377.287445 335.393372,383.780975 
	C335.493988,387.283813 334.140198,388.450562 330.720459,388.401184 
	C318.699738,388.227570 320.756989,389.128082 320.690033,378.690338 
	C320.573517,360.526917 320.790070,342.360565 320.567566,324.199097 
	C320.513092,319.751038 321.951324,318.055664 326.289032,318.627106 
	C327.599915,318.799835 328.968079,318.795868 330.282013,318.638702 
	C334.254974,318.163391 335.552277,319.903320 335.409851,323.785095 
	C335.171722,330.275360 335.461945,336.783600 335.305969,343.278900 
	C335.228943,346.487274 336.350281,347.799896 339.640594,347.690735 
	C344.967346,347.514008 350.306915,347.541107 355.635773,347.682739 
	C358.727875,347.764893 359.716156,346.410950 359.670837,343.481750 
	C359.565186,336.651215 359.763123,329.815460 359.623505,322.986206 
	C359.557404,319.752136 360.793182,318.579681 364.008301,318.620056 
	C376.444153,318.776276 374.075134,317.691406 374.331177,328.502136 
	C374.410034,331.833160 374.342926,335.167633 374.342712,339.000397 
z"/>
<path fill="#000000" opacity="1.000000" stroke="none" 
	d="
M552.020142,375.061462 
	C554.398499,379.358582 557.810547,382.693237 559.108154,387.719391 
	C553.752686,388.885529 548.656555,388.343903 543.605103,388.164551 
	C541.521484,388.090576 540.774780,386.010651 539.828674,384.528137 
	C535.639893,377.964417 531.605347,371.301910 527.384033,364.759613 
	C526.384094,363.209747 525.567810,360.775726 522.941223,361.625702 
	C520.532654,362.405182 521.402649,364.681915 521.372681,366.367218 
	C521.272095,372.024170 521.182007,377.689331 521.384705,383.340729 
	C521.511475,386.873352 520.512207,388.459442 516.647888,388.394684 
	C504.727844,388.194855 506.758942,389.115723 506.694916,378.638245 
	C506.584076,360.497711 506.791504,342.354431 506.567657,324.215942 
	C506.512878,319.777069 507.947540,318.074402 512.281921,318.636169 
	C513.591614,318.805878 514.955933,318.792114 516.270264,318.642456 
	C520.219421,318.192749 521.559631,319.908020 521.410217,323.798309 
	C521.167664,330.113464 521.571899,336.455994 521.261230,342.765167 
	C521.053833,346.977356 522.892395,347.888763 526.597168,347.690918 
	C535.158813,347.233643 540.986877,340.854279 541.617493,330.882416 
	C541.722412,329.224365 541.645264,327.554718 541.649780,325.890411 
	C541.669678,318.643799 541.669373,318.643799 549.104065,318.657990 
	C556.336548,318.671753 556.305420,318.671967 556.354919,326.137604 
	C556.415405,335.249207 555.147339,343.899994 549.268188,351.421143 
	C547.141846,354.141388 543.854431,355.207001 541.292969,358.213379 
	C544.750916,363.660645 548.278015,369.216766 552.020142,375.061462 
z"/>
<path fill="#000000" opacity="1.000000" stroke="none" 
	d="
M450.061615,384.103760 
	C441.662292,378.733856 437.056824,371.081970 435.952148,361.851959 
	C434.273926,347.829834 436.319153,334.968781 448.016449,324.772797 
	C460.981140,313.472076 488.228760,315.807770 497.799072,329.659271 
	C499.310547,331.846893 499.149780,333.174561 497.314301,334.681793 
	C495.393433,336.259094 493.521545,337.906982 491.509918,339.360168 
	C488.781921,341.330872 487.648651,338.547333 486.249908,337.244385 
	C479.245850,330.719849 471.027802,329.287628 462.957123,332.348114 
	C450.665253,337.009369 447.083771,354.411011 453.080933,365.615601 
	C459.786682,378.143890 475.095673,380.447998 485.507141,370.645416 
	C487.041504,369.200775 488.288879,365.868774 490.958496,367.453400 
	C494.044739,369.285370 496.894226,371.944244 498.460602,375.253815 
	C499.197052,376.809906 497.302979,378.612213 496.060913,379.860046 
	C487.914948,388.043610 477.864044,391.201569 466.582825,390.011749 
	C460.845001,389.406586 455.144135,387.982361 450.061615,384.103760 
z"/>
<path fill="#000000" opacity="1.000000" stroke="none" 
	d="
M410.132080,359.362213 
	C402.317749,359.377502 402.279968,359.377808 402.339294,366.703674 
	C402.421387,376.838959 401.178497,375.576904 411.513733,375.654846 
	C416.012024,375.688751 420.513611,375.769073 425.008209,375.638519 
	C428.260803,375.544128 429.286011,376.989136 429.383545,380.124817 
	C429.639343,388.349274 429.759674,388.353271 421.372314,388.354889 
	C411.875427,388.356689 402.376160,388.217682 392.882812,388.397278 
	C389.092834,388.468964 387.556305,387.336029 387.588226,383.309052 
	C387.746704,363.316803 387.718384,343.322418 387.621948,323.329437 
	C387.605713,319.961304 388.642090,318.553314 392.184479,318.604858 
	C403.011993,318.762360 413.844208,318.749817 424.672394,318.619690 
	C428.050903,318.579102 429.372498,319.683350 429.411835,323.206970 
	C429.502411,331.319000 429.663666,331.319366 421.798798,331.334412 
	C416.800446,331.343994 411.799591,331.443390 406.804626,331.315765 
	C403.719482,331.236969 402.232391,332.195435 402.294617,335.579926 
	C402.540619,348.952942 400.949066,346.381256 412.933289,346.646027 
	C415.431244,346.701233 417.941895,346.515076 420.427551,346.698914 
	C422.632507,346.862030 425.740326,345.515747 426.800842,348.034180 
	C428.075134,351.060333 427.647552,354.607300 426.954163,357.877869 
	C426.602417,359.536987 424.889954,359.299408 423.605103,359.315918 
	C419.273834,359.371735 414.941589,359.352966 410.132080,359.362213 
z"/>
<path fill="#000000" opacity="1.000000" stroke="none" 
	d="
M482.531830,476.543823 
	C466.802216,464.229309 466.558655,436.189240 479.469421,422.819977 
	C489.278046,412.663116 501.609772,409.455048 515.513672,413.254486 
	C524.476440,415.703705 530.389709,419.905853 533.703430,426.524994 
	C529.533386,432.442108 528.691711,432.499603 523.583679,427.602142 
	C516.343811,420.660645 507.706543,418.655304 498.277588,421.563812 
	C488.821533,424.480621 482.829987,431.372101 480.526276,440.811035 
	C476.899353,455.671661 483.563629,469.473175 496.698303,474.212006 
	C509.976501,479.002625 526.968079,473.762756 529.385254,456.688843 
	C528.333984,454.789490 526.472473,455.425629 524.912964,455.405243 
	C518.751953,455.324585 512.587219,455.256439 506.428558,455.393951 
	C503.147980,455.467194 501.557922,454.505066 501.590485,450.882996 
	C501.620575,447.541046 502.988159,446.583221 506.093231,446.620209 
	C515.751099,446.735107 525.412231,446.751678 535.069763,446.625793 
	C538.350159,446.583038 539.276794,447.923615 539.399719,451.065735 
	C540.161560,470.539978 526.974121,484.201538 507.336609,484.398529 
	C498.258881,484.489563 489.833344,483.020050 482.531830,476.543823 
z"/>
<path fill="#000000" opacity="1.000000" stroke="none" 
	d="
M233.480225,424.495758 
	C222.823959,431.456726 220.044830,441.665802 221.576584,452.964142 
	C223.033951,463.713898 228.932205,472.003632 239.921936,474.845215 
	C251.491638,477.836731 264.486877,474.335083 269.576416,462.047729 
	C270.416412,460.019836 270.985565,458.043365 270.532074,455.345306 
	C263.131775,455.345306 255.835587,455.264801 248.542587,455.382538 
	C245.357208,455.433960 243.637344,454.664276 243.600006,450.965942 
	C243.561752,447.176086 245.405731,446.588684 248.534210,446.623444 
	C257.859161,446.727081 267.188385,446.786560 276.510895,446.604828 
	C280.205322,446.532837 281.498444,447.826660 281.387238,451.528442 
	C280.809052,470.773041 267.142059,484.540314 248.784225,484.492737 
	C232.871048,484.451508 220.977249,478.682281 214.637512,463.740631 
	C206.528549,444.629242 214.267883,419.968933 236.228622,413.508881 
	C249.964798,409.468231 262.448029,412.056641 272.673401,422.698395 
	C274.362854,424.456635 276.844757,426.305573 273.822113,428.843811 
	C271.485382,430.806061 269.540649,432.159241 266.455078,428.747833 
	C257.921783,419.313446 244.830185,417.826843 233.480225,424.495758 
z"/>
<path fill="#000000" opacity="1.000000" stroke="none" 
	d="
M379.705872,464.195862 
	C378.821869,462.759308 378.028564,461.690094 377.366150,460.545197 
	C374.545288,455.669434 369.745850,453.838348 364.427277,455.462250 
	C362.216187,456.137360 362.360840,457.789520 362.353149,459.433044 
	C362.322754,465.923615 362.209991,472.417511 362.375305,478.903870 
	C362.467316,482.514801 360.792908,483.431122 357.522491,483.398407 
	C354.373657,483.366852 352.591766,482.736847 352.613892,479.002808 
	C352.734009,458.699127 352.731140,438.394043 352.611786,418.090363 
	C352.590515,414.472046 354.120911,413.556366 357.403992,413.616699 
	C365.223480,413.760437 373.048615,413.576538 380.869415,413.678558 
	C390.780304,413.807861 398.573090,420.637543 400.956329,431.090820 
	C402.755585,438.982819 397.902435,448.298157 389.830750,452.480438 
	C388.515228,453.162048 387.236237,453.914093 385.525391,454.863983 
	C389.784393,464.621338 396.836395,472.676727 401.343506,482.219269 
	C393.792847,484.602417 391.778534,483.968689 388.105927,478.130554 
	C385.282715,473.642761 382.601257,469.065735 379.705872,464.195862 
M390.210968,439.544647 
	C392.996918,430.093933 389.693604,424.412750 380.103241,421.967377 
	C375.513763,420.797119 370.869080,421.663239 366.262665,421.349213 
	C363.146851,421.136810 362.251678,422.692169 362.318298,425.565674 
	C362.445068,431.034851 362.542023,436.517975 362.287018,441.978271 
	C362.106628,445.840637 363.774414,446.913330 367.302521,446.700531 
	C370.772247,446.491302 374.264374,446.664886 377.746582,446.647736 
	C382.906860,446.622314 387.039062,444.668610 390.210968,439.544647 
z"/>
<path fill="#000000" opacity="1.000000" stroke="none" 
	d="
M416.674713,419.784180 
	C424.991058,411.249542 434.795624,410.061340 445.257874,413.378174 
	C456.252533,416.863831 459.894623,425.906219 460.222076,436.277557 
	C460.668091,450.404541 460.228302,464.557465 460.376282,478.697113 
	C460.417206,482.607605 458.641693,483.387024 455.210205,483.409943 
	C451.703827,483.433319 450.485992,482.097260 450.624573,478.693634 
	C450.807159,474.209503 450.579041,469.710083 450.674286,465.220398 
	C450.732300,462.485535 449.649017,461.289490 446.857788,461.319916 
	C439.205780,461.403412 431.552094,461.385376 423.899506,461.338654 
	C421.373749,461.323242 420.303497,462.413757 420.336884,464.946991 
	C420.400391,469.770355 420.241425,474.596924 420.319611,479.419800 
	C420.370361,482.549927 418.761230,483.338531 415.952423,483.348328 
	C413.076721,483.358368 411.644379,482.402374 411.655090,479.342072 
	C411.711060,463.371094 411.567383,447.398407 411.762695,431.429596 
	C411.814331,427.209625 414.011627,423.509155 416.674713,419.784180 
M423.086670,452.616455 
	C430.750427,452.627502 438.415253,452.566772 446.077362,452.685150 
	C449.123840,452.732208 450.788177,451.861450 450.678833,448.461365 
	C450.523590,443.634796 450.999725,438.765472 450.547272,433.976654 
	C449.999786,428.182404 447.166870,423.552765 441.416107,421.408264 
	C435.639465,419.254181 430.273743,420.134369 425.694916,424.382416 
	C420.549683,429.156036 417.976044,445.915619 421.366455,452.058105 
	C421.497589,452.295746 421.937286,452.363068 423.086670,452.616455 
z"/>
<path fill="#000000" opacity="1.000000" stroke="none" 
	d="
M290.967133,481.691284 
	C290.774261,464.929657 290.214020,448.608612 290.808899,432.329773 
	C291.381897,416.649567 304.830566,410.833099 317.264496,411.927399 
	C327.484161,412.826752 335.249268,417.773926 337.923187,428.350677 
	C339.056183,432.832428 338.436920,437.543976 338.382782,442.171570 
	C338.242676,454.148956 338.284149,466.129364 338.364685,478.107819 
	C338.386505,481.347168 337.951874,483.495453 333.829010,483.423798 
	C329.935425,483.356140 329.574585,481.260010 329.634491,478.283173 
	C329.718170,474.125488 329.523041,469.959656 329.691223,465.807159 
	C329.817596,462.685944 328.834961,461.237732 325.465973,461.312134 
	C318.149139,461.473816 310.823364,461.475616 303.506958,461.302338 
	C300.093323,461.221527 299.188019,462.751129 299.315277,465.828827 
	C299.473267,469.648834 299.365662,473.480591 299.343170,477.307098 
	C299.304810,483.841553 297.621216,484.825134 290.967133,481.691284 
M306.656555,452.658600 
	C312.965607,452.655334 319.275085,452.608765 325.583496,452.669769 
	C328.166901,452.694733 329.705963,451.891846 329.658539,449.000366 
	C329.579559,444.186890 329.942657,439.345062 329.547333,434.562469 
	C328.843536,426.048096 323.347565,420.833740 315.186462,420.365204 
	C307.763977,419.939056 302.218384,424.560638 300.055603,432.549255 
	C298.806335,437.163605 299.875610,441.812805 299.298523,446.388672 
	C298.648651,451.541534 300.735748,453.469513 306.656555,452.658600 
z"/>
<path fill="#000000" opacity="1.000000" stroke="none" 
	d="
M590.229858,477.099396 
	C590.912109,481.753906 589.494995,483.582916 584.894958,483.447296 
	C574.904053,483.152710 564.896301,483.231567 554.900085,483.413788 
	C551.090454,483.483276 549.568054,482.300385 549.596558,478.303345 
	C549.739197,458.305206 549.714233,438.305206 549.609314,418.306610 
	C549.591492,414.902466 550.691223,413.562164 554.203796,413.616058 
	C564.367554,413.772034 574.535706,413.709869 584.701355,413.633026 
	C587.636108,413.610870 589.403992,414.240906 589.362854,417.760590 
	C589.322266,421.234161 587.332092,421.373840 584.783386,421.356079 
	C577.950684,421.308441 571.113037,421.491882 564.286133,421.287506 
	C560.699829,421.180145 559.067627,422.220337 559.291443,426.068481 
	C559.552246,430.553192 559.461304,435.067902 559.318970,439.563171 
	C559.223816,442.570221 560.400330,443.739929 563.422180,443.682190 
	C570.086060,443.554901 576.755493,443.727295 583.420044,443.619415 
	C586.517883,443.569305 588.414551,444.107635 588.402527,447.928070 
	C588.390991,451.572021 586.878906,452.478699 583.584290,452.391937 
	C577.255615,452.225311 570.909546,452.555573 564.589783,452.264771 
	C560.328918,452.068665 559.013245,453.732788 559.288940,457.785400 
	C559.571045,461.932800 559.486206,466.119720 559.312073,470.278870 
	C559.177734,473.487396 560.349121,474.768585 563.640686,474.695862 
	C570.803467,474.537598 577.973328,474.590515 585.137939,474.703461 
	C586.951782,474.732025 589.326904,473.853394 590.229858,477.099396 
z"/>
</svg>