<svg version="1.1" id="Layer_1" xmlns="http://www.w3.org/2000/svg" xmlns:xlink="http://www.w3.org/1999/xlink" x="0px" y="0px"
	 width="100%" viewBox="0 0 800 800" enable-background="new 0 0 800 800" xml:space="preserve">
<path fill="#FFFFFF" opacity="1.000000" stroke="none" 
	d="
M527.000000,801.000000 
	C351.333344,801.000000 176.166672,801.000000 1.000000,801.000000 
	C1.000000,534.333313 1.000000,267.666656 1.000000,1.000000 
	C267.666656,1.000000 534.333313,1.000000 801.000000,1.000000 
	C801.000000,267.666656 801.000000,534.333313 801.000000,801.000000 
	C709.833313,801.000000 618.666687,801.000000 527.000000,801.000000 
M558.042603,592.489075 
	C562.193481,588.992676 566.722290,585.852661 570.420898,581.929932 
	C579.710754,572.076965 589.115601,562.263794 597.581421,551.717773 
	C612.129822,533.594604 623.080261,513.277222 631.680054,491.695282 
	C643.614502,461.744507 648.594116,430.478088 648.890320,398.414276 
	C648.962891,390.548187 647.999634,382.624969 646.932800,374.807159 
	C645.386108,363.472412 643.947449,352.059937 641.329285,340.947662 
	C636.049438,318.538605 627.305786,297.415100 615.819092,277.422028 
	C605.785828,259.958557 593.987732,243.783646 579.821045,229.519608 
	C570.995178,220.633072 561.558899,212.260498 551.767944,204.444641 
	C533.603638,189.944504 513.326721,178.948395 491.744415,170.344315 
	C461.633728,158.340302 430.205078,153.356873 397.969788,153.108383 
	C390.102509,153.047729 382.180054,154.004730 374.362701,155.075562 
	C363.191254,156.605835 351.944000,158.043030 340.994995,160.640640 
	C318.597260,165.954391 297.461426,174.665771 277.468781,186.151428 
	C259.859589,196.267838 243.566528,208.181885 229.201721,222.489395 
	C220.445084,231.211105 212.193039,240.528641 204.480270,250.189987 
	C189.978912,268.354980 178.983551,288.626923 170.368347,310.206024 
	C158.348022,340.314117 153.372925,371.741577 153.108887,403.974792 
	C153.044464,411.841675 154.007355,419.763824 155.073868,427.581970 
	C156.598099,438.755371 158.009781,450.009491 160.615463,460.956360 
	C165.944977,483.346527 174.633270,504.494476 186.123245,524.483643 
	C196.326706,542.234619 208.341751,558.657593 222.799759,573.116211 
	C231.421936,581.738831 240.617172,589.873108 250.147858,597.484253 
	C268.311920,611.989990 288.579163,622.987793 310.157867,631.604858 
	C340.263489,643.627014 371.683899,648.635498 403.919525,648.891663 
	C411.786652,648.954224 419.658813,647.592224 427.538513,647.020935 
	C442.953094,645.903625 457.887512,642.492981 472.679138,638.149048 
	C492.126556,632.437866 510.580200,624.404297 527.823364,613.886597 
	C538.135376,607.596680 547.649719,599.999207 558.042603,592.489075 
z"/>
<path fill="#D4DC27" opacity="1.000000" stroke="none" 
	d="
M557.782593,592.739258 
	C547.649719,599.999207 538.135376,607.596680 527.823364,613.886597 
	C510.580200,624.404297 492.126556,632.437866 472.679138,638.149048 
	C457.887512,642.492981 442.953094,645.903625 427.538513,647.020935 
	C419.658813,647.592224 411.786652,648.954224 403.919525,648.891663 
	C371.683899,648.635498 340.263489,643.627014 310.157867,631.604858 
	C288.579163,622.987793 268.311920,611.989990 250.147858,597.484253 
	C240.617172,589.873108 231.421936,581.738831 222.799759,573.116211 
	C208.341751,558.657593 196.326706,542.234619 186.123245,524.483643 
	C174.633270,504.494476 165.944977,483.346527 160.615463,460.956360 
	C158.009781,450.009491 156.598099,438.755371 155.073868,427.581970 
	C154.007355,419.763824 153.044464,411.841675 153.108887,403.974792 
	C153.372925,371.741577 158.348022,340.314117 170.368347,310.206024 
	C178.983551,288.626923 189.978912,268.354980 204.480270,250.189987 
	C212.193039,240.528641 220.445084,231.211105 229.201721,222.489395 
	C243.566528,208.181885 259.859589,196.267838 277.468781,186.151428 
	C297.461426,174.665771 318.597260,165.954391 340.994995,160.640640 
	C351.944000,158.043030 363.191254,156.605835 374.362701,155.075562 
	C382.180054,154.004730 390.102509,153.047729 397.969788,153.108383 
	C430.205078,153.356873 461.633728,158.340302 491.744415,170.344315 
	C513.326721,178.948395 533.603638,189.944504 551.767944,204.444641 
	C561.558899,212.260498 570.995178,220.633072 579.821045,229.519608 
	C593.987732,243.783646 605.785828,259.958557 615.819092,277.422028 
	C627.305786,297.415100 636.049438,318.538605 641.329285,340.947662 
	C643.947449,352.059937 645.386108,363.472412 646.932800,374.807159 
	C647.999634,382.624969 648.962891,390.548187 648.890320,398.414276 
	C648.594116,430.478088 643.614502,461.744507 631.680054,491.695282 
	C623.080261,513.277222 612.129822,533.594604 597.581421,551.717773 
	C589.115601,562.263794 579.710754,572.076965 570.420898,581.929932 
	C566.722290,585.852661 562.193481,588.992676 557.782593,592.739258 
M446.115448,250.270462 
	C438.372681,249.202881 430.660217,247.589569 422.882141,247.157104 
	C375.742950,244.536118 335.011871,259.814667 302.910339,294.284149 
	C260.583527,339.733185 246.737030,393.272583 266.876251,452.654205 
	C303.627869,561.018494 446.106110,590.862427 524.199219,507.232513 
	C531.252014,499.679749 537.263977,491.155121 543.759277,483.081818 
	C543.416321,482.666534 543.073425,482.251251 542.730469,481.835968 
	C540.950989,481.835968 539.171509,481.835999 537.392029,481.835999 
	C497.401764,481.835999 457.411346,481.783325 417.421570,481.924316 
	C413.763458,481.937195 411.798828,480.787445 410.002411,477.635559 
	C395.754486,452.636932 381.375946,427.711945 366.866547,402.864197 
	C365.300568,400.182404 365.312103,398.346649 366.842133,395.721161 
	C381.330505,370.859619 395.745392,345.954376 409.981781,320.948029 
	C411.806732,317.742462 413.789673,316.742920 417.394043,316.755524 
	C456.717316,316.893250 496.041229,316.841736 535.364990,316.841736 
	C537.117249,316.841736 538.869507,316.841736 541.734497,316.841736 
	C517.973206,282.149414 487.041534,259.789734 446.115448,250.270462 
z"/>
<path fill="#010100" opacity="1.000000" stroke="none" 
	d="
M446.516602,250.393951 
	C487.041534,259.789734 517.973206,282.149414 541.734497,316.841736 
	C538.869507,316.841736 537.117249,316.841736 535.364990,316.841736 
	C496.041229,316.841736 456.717316,316.893250 417.394043,316.755524 
	C413.789673,316.742920 411.806732,317.742462 409.981781,320.948029 
	C395.745392,345.954376 381.330505,370.859619 366.842133,395.721161 
	C365.312103,398.346649 365.300568,400.182404 366.866547,402.864197 
	C381.375946,427.711945 395.754486,452.636932 410.002411,477.635559 
	C411.798828,480.787445 413.763458,481.937195 417.421570,481.924316 
	C457.411346,481.783325 497.401764,481.835999 537.392029,481.835999 
	C539.171509,481.835999 540.950989,481.835968 542.730469,481.835968 
	C543.073425,482.251251 543.416321,482.666534 543.759277,483.081818 
	C537.263977,491.155121 531.252014,499.679749 524.199219,507.232513 
	C446.106110,590.862427 303.627869,561.018494 266.876251,452.654205 
	C246.737030,393.272583 260.583527,339.733185 302.910339,294.284149 
	C335.011871,259.814667 375.742950,244.536118 422.882141,247.157104 
	C430.660217,247.589569 438.372681,249.202881 446.516602,250.393951 
z"/>
</svg>